<?xml version="1.0" standalone="no"?><svg xmlns="http://www.w3.org/2000/svg" viewBox="0 0 1440 320"><path fill="#ffffff" fill-opacity="1" d="M0,192L26.7,208C53.3,224,107,256,160,261.3C213.3,267,267,245,320,208C373.3,171,427,117,480,112C533.3,107,587,149,640,170.7C693.3,192,747,192,800,176C853.3,160,907,128,960,128C1013.3,128,1067,160,1120,192C1173.3,224,1227,256,1280,250.7C1333.3,245,1387,203,1413,181.3L1440,160L1440,320L1413.3,320C1386.7,320,1333,320,1280,320C1226.7,320,1173,320,1120,320C1066.7,320,1013,320,960,320C906.7,320,853,320,800,320C746.7,320,693,320,640,320C586.7,320,533,320,480,320C426.7,320,373,320,320,320C266.7,320,213,320,160,320C106.7,320,53,320,27,320L0,320Z"></path></svg>